<svg xmlns="http://www.w3.org/2000/svg" width="250.719" height="124.834" viewBox="0 0 250.719 124.834">     
  <path d="M241.089,39.193c-.121,0-.225.028-.346.032a19.861,19.861,0,0,0-32.578-19.971,26.07,26.07,0,0,0-51.121,4.424c-.217-.04-.432-.072-.649-.1a19.828,19.828,0,0,0-32.256,8.265,13.467,13.467,0,0,0-4.428-.755,13.278,13.278,0,0,0-13.55,13q0,.115,0,.23c0,7.486,5.912,13.865,13.4,13.865h31.887c.842,1,1.719,0,2.6,0h87.047a9.494,9.494,0,0,0,.276-18.986q-.138,0-.276,0Z" fill="#cbebf5" opacity="0.8" style="isolation: isolate"/>
  <path d="M106.479,118.325a6.435,6.435,0,0,0-2.218-4.886,6.632,6.632,0,0,0-5.191-1.57A17.32,17.32,0,0,0,87.242,90.58a17.66,17.66,0,0,0-21.854,11.184,12.15,12.15,0,0,0-12.772,3.166,11.732,11.732,0,0,0-2.179,12.8,12.04,12.04,0,0,0,11.025,7.1h38.955l-.009-.027A6.543,6.543,0,0,0,106.479,118.325Z" fill="#cbebf5" opacity="0.8" style="isolation: isolate"/>
  <path data-name="Shape" d="M82.434,36.752c-.093,0-.177.023-.271.027A15.658,15.658,0,0,0,56.476,21.043a20.554,20.554,0,0,0-40.3,3.484,13.982,13.982,0,0,0-2.383-.218,13.784,13.784,0,1,0,0,27.567H82.434a7.562,7.562,0,1,0,0-15.123Z" fill="#cbebf5" style="isolation: isolate"/>
  <path d="M114.964,75.465v0a4.383,4.383,0,0,1-.654-1.785,3.548,3.548,0,0,0-.958-2.032h0a2.372,2.372,0,0,0-.734-.449,10.479,10.479,0,0,0-.339-7.168,24.135,24.135,0,0,0-4.219-6.751c-1.543-1.946-3.049-3.788-3.019-6.518.046-4.166.453-11.893-6.879-11.9-.3,0-.6.012-.928.038-8.193.661-6.019,9.316-6.141,12.214a10.468,10.468,0,0,1-2.036,5.861,28.949,28.949,0,0,0-5.271,8.761,10.488,10.488,0,0,0-.56,4.839c-.075.066-.141.136-.208.208-.5.537-.875,1.186-1.289,1.624a3.991,3.991,0,0,1-1.539.75,2.779,2.779,0,0,0-1.68,1.311v0a3.459,3.459,0,0,0-.148,2.2,4.728,4.728,0,0,1,.076,1.882,3.635,3.635,0,0,0-.2,2.876,2.434,2.434,0,0,0,1.82,1.116c1.571.328,3.7.243,5.381,1.132v0a7.65,7.65,0,0,0,5.073.938,3.284,3.284,0,0,0,2.345-1.828c1.136-.005,2.383-.493,4.381-.6,1.354-.109,3.044.482,4.991.373a2.684,2.684,0,0,0,.229.607v.008a3.644,3.644,0,0,0,3.656,2.083,6.619,6.619,0,0,0,4.371-2.532l-.237-.2.237.2c1.227-1.486,3.265-2.1,4.614-2.918a2.173,2.173,0,0,0,1.261-1.654C116.393,77.4,115.962,76.573,114.964,75.465Zm-18.1-27.2a3.429,3.429,0,0,1,.293-1.485,2.637,2.637,0,0,1,.835-1.094,1.827,1.827,0,0,1,1.145-.413h.026a1.842,1.842,0,0,1,1.132.391,2.59,2.59,0,0,1,.856,1.078,3.429,3.429,0,0,1,.323,1.437.148.148,0,0,0,0,.042,3.488,3.488,0,0,1-.3,1.485,2.874,2.874,0,0,1-.419.7c-.056-.027-.114-.053-.174-.077-.413-.176-.729-.294-.992-.385a1.627,1.627,0,0,0,.246-.419,2.25,2.25,0,0,0,.17-.806c0-.012,0-.02,0-.034a2.248,2.248,0,0,0-.119-.784,1.436,1.436,0,0,0-.36-.611.741.741,0,0,0-.517-.237.219.219,0,0,0-.03,0,.751.751,0,0,0-.5.2,1.439,1.439,0,0,0-.407.581,2.268,2.268,0,0,0-.166.814.258.258,0,0,0,0,.034,2.293,2.293,0,0,0,.034.461,4.882,4.882,0,0,0-1.048-.394,4.077,4.077,0,0,1-.034-.437Zm-4.83-1.175a2.2,2.2,0,0,1,.551-.968,1.2,1.2,0,0,1,.81-.394c.023,0,.049,0,.072,0a1.189,1.189,0,0,1,.772.3,2.249,2.249,0,0,1,.665.9,3.5,3.5,0,0,1,.3,1.269,3.918,3.918,0,0,1-.008.567c-.054.016-.1.034-.157.052a3.5,3.5,0,0,0-.793.389,2.059,2.059,0,0,0,.012-.5.219.219,0,0,1,0-.03,2.145,2.145,0,0,0-.161-.641,1.22,1.22,0,0,0-.322-.467.515.515,0,0,0-.357-.144.354.354,0,0,0-.038,0,.528.528,0,0,0-.369.212,1.246,1.246,0,0,0-.228.517,2.1,2.1,0,0,0-.043.684v.024a2.125,2.125,0,0,0,.161.641,1.22,1.22,0,0,0,.313.467c.023.019.046.039.068.056-.136.1-.2.151-.313.232-.072.053-.155.118-.254.191a2.337,2.337,0,0,1-.539-.793,3.587,3.587,0,0,1-.3-1.269v0A3.562,3.562,0,0,1,92.03,47.086Zm.208,4.147c.433-.324.737-.544.936-.691a4.016,4.016,0,0,0,.345-.263,4.451,4.451,0,0,1,1.623-1.141,2.8,2.8,0,0,1,.9-.156l0,0a4.32,4.32,0,0,1,2.345.81,14.525,14.525,0,0,0,2.053.848,1.7,1.7,0,0,1,.928.746,1.063,1.063,0,0,1,.026.894,3.16,3.16,0,0,1-2.061,1.637v.005a8.915,8.915,0,0,0-1.509.848,3.359,3.359,0,0,1-1.956.5,2.41,2.41,0,0,1-1.493-.581,9.56,9.56,0,0,0-1.187-.966v0A2.673,2.673,0,0,1,91.86,52.34.947.947,0,0,1,92.237,51.233Zm.305,30.25V81.5a2.58,2.58,0,0,1-2.179,2.519,7.1,7.1,0,0,1-4.644-.89c-1.877-.993-4.112-.9-5.544-1.2a1.844,1.844,0,0,1-1.4-.788,3.155,3.155,0,0,1,.237-2.388v-.012a4.76,4.76,0,0,0-.046-2.171,3.057,3.057,0,0,1,.076-1.816l0,0a2.1,2.1,0,0,1,1.341-1.022,4.294,4.294,0,0,0,1.772-.9h0v0c.493-.52.862-1.167,1.293-1.628a1.692,1.692,0,0,1,1.281-.654h.022a2.09,2.09,0,0,1,.305.03,3.174,3.174,0,0,1,1.976,1.451,19.61,19.61,0,0,1,1.776,3.227v0a22.381,22.381,0,0,0,2.307,3.169A5.194,5.194,0,0,1,92.543,81.483Zm-.149-2.345c-.232-.368-.5-.731-.771-1.09-.175-.229-.356-.459-.535-.684a2.163,2.163,0,0,0,.894-.17,1.112,1.112,0,0,0,.615-.631,2.555,2.555,0,0,0-.673-2.261,12.256,12.256,0,0,0-3.466-2.948,4.92,4.92,0,0,1-2.23-2.71,6.077,6.077,0,0,1-.022-3.189,18.917,18.917,0,0,1,2.46-5.36c.209-.153.076.281-.786,1.88-.771,1.462-2.216,4.843-.242,7.476A15.7,15.7,0,0,1,88.9,63.875c1.1-2.481,3.382-6.784,3.562-10.212.095.068.417.288.56.369a10.4,10.4,0,0,1,1.145.932,2.813,2.813,0,0,0,1.692.662,3.75,3.75,0,0,0,2.154-.552,10.167,10.167,0,0,1,1.437-.818,3.858,3.858,0,0,0,2.023-1.357,46.825,46.825,0,0,0,3.363,8.677,20.191,20.191,0,0,1,2.137,5.857,3.6,3.6,0,0,1,.992.126c1.249-3.235-1.057-6.722-2.112-7.692-.426-.414-.448-.6-.237-.59a11.155,11.155,0,0,1,3.2,5.348,6.823,6.823,0,0,1,.039,3.231c.13.054.259.11.394.174,2,.976,2.744,1.824,2.388,2.981-.118,0-.232,0-.345,0a.282.282,0,0,0-.034,0c.29-.917-.353-1.592-2.064-2.367-1.776-.78-3.192-.706-3.432.878-.015.083-.029.174-.038.259a2.613,2.613,0,0,0-.4.178,3.36,3.36,0,0,0-1.54,2.3,19.946,19.946,0,0,0-.4,3.618,14.059,14.059,0,0,1-.619,2.629C99.857,80.581,95.823,81.478,92.393,79.138Zm17.426-8.262a2.746,2.746,0,0,1-2.455,1.239c-.9-.232-1.333-1.52-1.187-2.494a.941.941,0,0,1,1-.95,3.266,3.266,0,0,1,1.285.335C109.767,69.606,110.175,70.121,109.819,70.877Zm5.921,7.23c-.027.457-.361.8-.972,1.167-1.221.736-3.38,1.375-4.762,3.049a6.057,6.057,0,0,1-3.953,2.315A2.963,2.963,0,0,1,103,82.887v0l0,0A4.967,4.967,0,0,1,103.1,79.6a22.026,22.026,0,0,0,.9-3.68v0a19.64,19.64,0,0,1,.377-3.508,2.72,2.72,0,0,1,1.238-1.908c.03-.016.06-.033.09-.046a2.786,2.786,0,0,0,1.713,2.671c1.141.3,2.783-.681,3.478-1.479.138-.005.275-.014.407-.018a2.132,2.132,0,0,1,1.641.484h0a3.153,3.153,0,0,1,.756,1.7,4.5,4.5,0,0,0,.8,2.06v.005C115.455,76.936,115.766,77.651,115.74,78.107Z" fill="#1a1a1a"/>
  <path d="M100.557,51.988a2.243,2.243,0,0,0-.759.311c-.324.18-.7.419-1.124.661a5.954,5.954,0,0,1-2.884.972,3.981,3.981,0,0,1-2.477-.954c-.3-.237-.547-.47-.73-.641-.091-.085-.166-.157-.22-.2a.277.277,0,0,0-.073-.038.308.308,0,0,0,.018-.09l.008-.267a.377.377,0,0,1,.259.115c.075.057.157.133.25.22.186.175.422.4.7.628a3.639,3.639,0,0,0,2.261.882,5.7,5.7,0,0,0,2.709-.934c.413-.237.791-.478,1.129-.666a2.273,2.273,0,0,1,.907-.343Z" fill="#1a1a1a"/>
  <rect x="9.871" y="43.864" width="28.884" height="28.884" fill="#f25022"/>
  <rect x="41.762" y="43.864" width="28.883" height="28.884" fill="#7fba00"/>
  <rect x="9.871" y="75.767" width="28.884" height="28.883" fill="#00a4ef"/>
  <rect x="41.762" y="75.767" width="28.883" height="28.883" fill="#ffb900"/>
  <path d="M103.791,13.293,100.125,3.083a1.682,1.682,0,0,1-.117-.491.887.887,0,0,1,.909-.863.944.944,0,0,1,.912.746l3.038,8.8,3.06-8.822a.92.92,0,0,1,.885-.722h.095a.953.953,0,0,1,.935.722l3.035,8.822,3.086-8.843a.878.878,0,0,1,.864-.7.862.862,0,0,1,.888.84,1.731,1.731,0,0,1-.117.491l-3.69,10.233a1.068,1.068,0,0,1-.982.815h-.07a1.009,1.009,0,0,1-.983-.815l-3.011-8.675-3.037,8.675a1.008,1.008,0,0,1-.981.815h-.049a1.07,1.07,0,0,1-1-.815" fill="#696566"/>
  <path d="M130.516,2.62a.908.908,0,0,1,.888-.913.9.9,0,0,1,.913.913V4.691a4.92,4.92,0,0,1,4.164-2.962.866.866,0,0,1,.892.912.892.892,0,0,1-.8.912c-2.341.281-4.257,2.036-4.257,5.524v4.1a.9.9,0,1,1-1.8,0V2.62Z" fill="#696566"/>
  <path d="M143.153,14.2a5.924,5.924,0,0,1-5.916-6.23V7.927c0-3.45,2.408-6.229,5.686-6.229,3.506,0,5.5,2.892,5.5,6.066a.83.83,0,0,1-.826.836h-8.571a4.153,4.153,0,0,0,4.172,4.05,4.817,4.817,0,0,0,3.415-1.39.762.762,0,0,1,1.285.559.76.76,0,0,1-.277.577,6,6,0,0,1-4.469,1.808M146.66,7.28C146.476,5.1,145.238,3.2,142.876,3.2c-2.063,0-3.622,1.736-3.849,4.076Z" fill="#696566"/>
  <path d="M117.745,10.455v-.047c0-2.542,2.1-3.9,5.155-3.9a12.758,12.758,0,0,1,3.711.515V6.605c0-2.168-1.333-3.289-3.594-3.289a6.116,6.116,0,0,0-2.808.55.9.9,0,0,1-.324.071.8.8,0,0,1-.8-.77.744.744,0,0,1,.491-.748,8.01,8.01,0,0,1,3.622-.687A5.282,5.282,0,0,1,127.1,3.061a4.754,4.754,0,0,1,1.238,3.523v6.655a.854.854,0,0,1-.866.886.825.825,0,0,1-.858-.84v-1.15a5.285,5.285,0,0,1-4.361,2.077c-2.241,0-4.506-1.283-4.506-3.756m8.889-.933V8.355a12.633,12.633,0,0,0-3.548-.513c-2.26,0-3.521.981-3.521,2.5v.046c0,1.516,1.4,2.4,3.033,2.4,2.215,0,4.036-1.354,4.036-3.264" fill="#696566"/>
  <path d="M71.113,2.487a1.7,1.7,0,0,0-2.283-.853,1.669,1.669,0,0,0-.836,2.284l3.828,8.321c.6,1.3,1.236,1.987,2.427,1.987,1.272,0,1.827-.744,2.428-1.987,0,0,3.339-7.27,3.372-7.346a.483.483,0,0,1,.481-.31.532.532,0,0,1,.529.539v7.109a1.8,1.8,0,1,0,3.577,0V6.414a1.789,1.789,0,0,1,1.9-1.85,1.743,1.743,0,0,1,1.825,1.85v5.818a1.786,1.786,0,0,0,1.777,1.995,1.805,1.805,0,0,0,1.8-1.995V6.414a1.786,1.786,0,0,1,1.9-1.85,1.745,1.745,0,0,1,1.826,1.85v5.818a1.786,1.786,0,0,0,1.778,1.995,1.8,1.8,0,0,0,1.8-1.995V5.61a4.15,4.15,0,0,0-4.311-4.138A5.534,5.534,0,0,0,91.107,3.1a4.228,4.228,0,0,0-3.688-1.625A6.073,6.073,0,0,0,83.805,3.1a4.321,4.321,0,0,0-3.221-1.625,3.959,3.959,0,0,0-3.892,2.643L74.248,9.88Z" fill="#696566"/>
  <path d="M148.571,3.208V3.2a1.492,1.492,0,1,1,2.984-.006V3.2a1.5,1.5,0,0,1-1.494,1.5,1.485,1.485,0,0,1-1.491-1.492m2.7-.01v0a1.2,1.2,0,0,0-1.207-1.219A1.212,1.212,0,0,0,148.854,3.2v.008a1.208,1.208,0,1,0,2.415-.008" fill="#696566"/>
  <path d="M149.491,2.607a.159.159,0,0,1,.161-.16h.5a.564.564,0,0,1,.422.148.449.449,0,0,1,.127.329v0a.443.443,0,0,1-.288.44l.22.268a.19.19,0,0,1,.051.122.148.148,0,0,1-.151.146.2.2,0,0,1-.156-.082l-.31-.392h-.254v.315a.156.156,0,0,1-.158.158.158.158,0,0,1-.161-.158V2.607Zm.641.542c.155,0,.24-.081.24-.2V2.941c0-.134-.092-.207-.246-.207h-.317v.416h.323Z" fill="#696566"/>
  <polygon points="203.378 96.426 163.358 96.426 159.597 101.397 207.137 101.397 203.378 96.426" fill="#505050"/>
  <rect x="159.571" y="101.397" width="47.514" height="1.302" fill="#404041"/>
  <rect x="173.942" y="86.573" width="18.772" height="12.338" fill="#404041"/>
  <polygon points="214.379 106.614 151.208 106.614 139.193 119.927 227.463 119.927 214.379 106.614" fill="#505050"/>
  <path d="M145.8,42.441h75.046a4.71,4.71,0,0,1,4.71,4.71V86.473a4.711,4.711,0,0,1-4.711,4.711H145.806a4.71,4.71,0,0,1-4.71-4.71V47.149A4.709,4.709,0,0,1,145.8,42.441Z" fill="#404041"/>
  <rect x="145.787" y="46.978" width="75.667" height="39.595" fill="#6dc2e9"/>
  <rect x="173.942" y="91.184" width="18.772" height="3.069"/>
  <rect x="139.193" y="119.927" width="88.27" height="1.324" fill="#404041"/>
  <circle cx="183.328" cy="44.578" r="1.175"/>
  <polygon points="213.946 108.4 151.96 108.4 143.623 117.985 222.661 117.985 213.946 108.4" fill="#404041"/>
  <path d="M221.357,114.8h-4.68l-.019-.025-.007.025h-2.935l0,0v0h-3.087l-1.3-2.023h2.48l.016.021.007-.021h7.54v-.443h-7.408l0-.021-1.511-2h6.83v-.443h-7.165l-.013-.019h0l-1.456-2.023-.148.48,1.122,1.562h-2.188l0-.012-1.308-2.023-.16.462,1.014,1.572h-2.425l-1.336-2.329-2.392.189,1.106,2.141h-5.7l-.725-2.108-.22.337.61,1.771h-2.331l-.53-1.942-.234.287.452,1.655H190.9l-.41-2.05-.249.224.365,1.826h-2.365l-.252-2.012-.262.146.234,1.865h-2.378l-.105-1.834-.27.069.1,1.765h-2.383l.026-1.792-.271-.016-.027,1.807h-2.38l.142-1.638-.268-.1L180,109.87h-2.475l.292-1.846-.258-.183-.32,2.029h-2.361l.358-1.562-.244-.253-.416,1.815h-2.343l.56-1.861-.229-.308-.653,2.17h-2.322l.658-1.761-.214-.356-.79,2.117h-2.282l.817-1.734-.192-.409-1.01,2.143H159.91l0-.008,0,.008h-.87l1.127-1.705L160,107.7l-1.414,2.137.011.035h-9.908v.443h10.935l-1.167,1.869.055.152H156.1l0-.012-.007.012h-8.913v.443H155.8l-1.317,2.009,0,.014h-9.773v.445h9.925l0,.008.009-.008h1.041l-2.162,3.258.159.466,2.453-3.7-.009-.025h4.4l.041.1.054-.1h1.114l-1.678,3.281.184.422,1.786-3.5-.092-.206h2.926l-1.363,3,.2.4,1.544-3.4h1.37l.04.065.026-.065h1.173l-1.193,3.316.217.349,1.3-3.61-.036-.054h2.773l-.883,3.054.231.3.971-3.352h24.1l.919,3.2.231-.3-.833-2.9h2.768l-.036.054,1.136,3.167.217-.347-1.034-2.874h2.687l1.4,3.24.2-.385-1.231-2.855h2.966l2.236,4.319h3.177l-2.481-4.319h2.811l.014.019,2.685,4.16.162-.462-2.4-3.716h2.659l-.008.027,2.474,3.537.15-.474-2.161-3.09h2.5l-.007.021,2.778,3.52.139-.493-2.407-3.048h4.329Zm-14.086-4.487.007.008,0-.008h2.663l.012.019.006-.019h0l-.007.021,1.511,2h-5.495l-1.159-2.021Zm-4.06,2.021H198.5l-.769-2.021h4.431Zm-35.912.443-.8,2.023h-2.607l.907-2.021v0Zm-.035-.443.826-2.021h2.31l-.652,2.021Zm3.464-2.021h2.4l-.538,2.021h-2.514Zm22.09,2.021-.478-2.021h2.373l.623,2.021Zm-.3,0h-2.537l-.332-2.021h2.391Zm-2.824,0h-2.55l-.189-2.021h2.406Zm-2.825,0h-2.558l-.043-2.021h2.412Zm-2.829,0h-2.563l.082-2.021h2.438Zm-2.834,0h-2.652l.245-2.021h2.488Zm-2.932,0h-2.545l.39-2.021h2.4Zm-2.84,0H172.9l.537-2.021h2.385Zm-2.383.443-.507,2.023H169.85l.653-2.023Zm.307,0h2.565l-.364,2.023h-2.709Zm2.855,0h2.579l-.218,2.023h-2.724Zm2.856,0h2.6l.011,2.023H178.85Zm2.869,0h2.82l-.135.021.071,2h-2.744Zm2.956,0h2.588l.218,2.023h-2.732Zm2.867,0h2.58l.361,2.023h-2.723Zm2.87,0h2.563l.509,2.023h-2.71Zm2.87,0h2.546l.654,2.023h-2.691Zm2.165-.443-.624-2.021h2.351l.767,2.021Zm-35.591-2.021h7.662l-.826,2.021h-7.967v-.006l0,.006h-.119l1.256-2.015Zm-5.133,4.487,1.317-2.011,0-.012h2.415l-1.23,2.017,0,.006Zm4.164-2.023h2.443l-1.088,2.023h-2.581l1.229-2.017Zm2.833,0h2.494l-.907,2.023h-2.654l1.075-2Zm5.719,0h2.521l-.652,2.023h-2.667Zm29.371,2.023-.653-2.023h7.068l1.045,2.023Zm10.365,0-1.161-2.023H208.9l-.013.036,1.281,1.986Z" fill="#505050"/>
  <polygon points="182.369 66.682 172.086 60.745 172.086 72.657 182.369 78.593 182.369 66.682" fill="#fff"/>
  <polygon points="184.289 78.593 194.569 72.657 194.569 60.823 184.289 66.758 184.289 78.593" fill="#fff"/>
  <polygon points="193.644 59.142 183.328 53.187 173.08 59.101 183.395 65.058 193.644 59.142" fill="#fff"/>
</svg>
